<svg xmlns="http://www.w3.org/2000/svg" width="1080" height="540" viewBox="0 0 1080 540">
<rect width="100%" height="100%" fill="white"/>
<defs><marker id="arrow" markerWidth="8" markerHeight="8" refX="7" refY="4" orient="auto"><path d="M0 0 L7 4 L0 8Z" fill="#444"/></marker></defs>
<style>text{font-family:Arial,sans-serif;fill:#222}.wire{fill:none;stroke:#555;stroke-width:2;stroke-linejoin:round}.shape{fill:white;stroke:#555;stroke-width:2}.ctrl{stroke-dasharray:6 4}</style>
<text x="32" y="38" font-size="25" text-anchor="start">prei / control — counterrun2</text>
<text x="75" y="155" font-size="21" text-anchor="start">counterrun1</text>
<text x="75" y="180" font-size="15" text-anchor="start">shared registered source [V]</text>
<polyline class="wire" points="75,200 475,200" marker-end="url(#arrow)"/>
<rect class="shape" x="475" y="120" width="235" height="190"/>
<text x="592.5" y="196" font-size="22" text-anchor="middle">counterrun2</text>
<text x="592.5" y="229" font-size="16" text-anchor="middle">DFF · reset = 0 [V]</text>
<polyline class="wire ctrl" points="390,275 475,275"/>
<text x="390" y="261" font-size="17" text-anchor="start">clk</text>
<path class="wire" d="M475 263 L492 275 L475 287"/>
<circle class="shape" cx="592.5" cy="315" r="5"/>
<polyline class="wire ctrl" points="592.5,320 592.5,366"/>
<text x="592.5" y="388" font-size="17" text-anchor="middle">rstn</text>
<text x="592.5" y="411" font-size="15" text-anchor="middle">async active-low</text>
<polyline class="wire" points="710,200 1030,200" marker-end="url(#arrow)"/>
<text x="790" y="180" font-size="19" text-anchor="start">counterrun2</text>
<text x="32" y="470" font-size="17" text-anchor="start">One-clock registered delay: counterrun2 &lt;= pre-edge counterrun1. Updates every clock, without enable gating.</text>
<text x="32" y="498" font-size="15" text-anchor="start">RTL: rtl/prei/control.v:85–89 · [V] VERIFIED register/RTL expression · [I] INFERRED mux/gate schematic</text>
<text x="32" y="522" font-size="15" text-anchor="start">Solid = data; dashed = control/clock/reset. Named feedback expressions use pre-edge state. No extra modules are implied.</text>
</svg>